<svg xmlns="http://www.w3.org/2000/svg" id="prefix__구성_요소_76_1" width="109.564" height="109.564" data-name="구성 요소 76 – 1" viewBox="0 0 109.564 109.564">
    <defs>
        <style>
            .prefix__cls-1{fill:#0a1e2d}.prefix__cls-2{fill:#0091ff}
        </style>
    </defs>
    <g id="prefix__그룹_197" data-name="그룹 197">
        <g id="prefix__그룹_196" data-name="그룹 196">
            <g id="prefix__그룹_192" data-name="그룹 192">
                <path id="prefix__패스_194" d="M-2694.033 593.692v-18.257a17 17 0 0 1 16.985-16.985h17.21v-4.885h-17.21a21.9 21.9 0 0 0-21.87 21.87v18.257z" class="prefix__cls-1" data-name="패스 194" transform="translate(2698.918 -553.565)"/>
            </g>
            <g id="prefix__그룹_193" data-name="그룹 193" transform="translate(70.484 71.531)">
                <path id="prefix__패스_195" d="M-2296.469 927.289v16.163a17 17 0 0 1-16.985 16.985h-17.21v4.885h17.21a21.9 21.9 0 0 0 21.87-21.87v-16.163z" class="prefix__cls-1" data-name="패스 195" transform="translate(2330.664 -927.289)"/>
            </g>
            <g id="prefix__그룹_194" data-name="그룹 194" transform="translate(70.484)">
                <path id="prefix__패스_196" d="M-2330.664 558.45h17.21a17 17 0 0 1 16.985 16.985v18.257h4.885v-18.257a21.9 21.9 0 0 0-21.87-21.87h-17.21z" class="prefix__cls-1" data-name="패스 196" transform="translate(2330.664 -553.565)"/>
            </g>
            <g id="prefix__그룹_195" data-name="그룹 195" transform="translate(0 71.531)">
                <path id="prefix__패스_197" d="M-2659.837 960.437h-17.21a17 17 0 0 1-16.985-16.985v-16.163h-4.885v16.163a21.9 21.9 0 0 0 21.87 21.87h17.21z" class="prefix__cls-1" data-name="패스 197" transform="translate(2698.918 -927.289)"/>
            </g>
        </g>
    </g>
    <g id="prefix__그룹_198" data-name="그룹 198" transform="translate(36.433 35.623)">
        <path id="prefix__패스_198" d="M-2526.552 702.517a19.183 19.183 0 0 0-19.183 19.183 19.183 19.183 0 0 0 19.183 19.183 19.183 19.183 0 0 0 19.183-19.183 19.183 19.183 0 0 0-19.183-19.183zm0 21.1a1.918 1.918 0 0 1-1.918-1.918 1.918 1.918 0 0 1 1.918-1.918 1.918 1.918 0 0 1 1.918 1.918 1.918 1.918 0 0 1-1.918 1.92z" class="prefix__cls-2" data-name="패스 198" transform="translate(2545.735 -702.517)"/>
        <circle id="prefix__타원_105" cx="1.918" cy="1.918" r="1.918" class="prefix__cls-2" data-name="타원 105" transform="translate(17.264 17.264)"/>
    </g>
    <path id="prefix__패스_199" fill="#3f4e59" d="M-2613.385 662.576h.033a.959.959 0 0 0 .959-.927 26.857 26.857 0 0 1 27.78-25.9 26.862 26.862 0 0 1 15.675 5.739h-5.1a.959.959 0 0 0-.959.959.96.96 0 0 0 .959.959h7.687a.962.962 0 0 0 .221-.044.932.932 0 0 0 .145-.032c.027-.012.047-.036.073-.05a.929.929 0 0 0 .234-.164l.01-.007a1.111 1.111 0 0 0 .066-.1.98.98 0 0 0 .126-.2.918.918 0 0 0 .048-.237.715.715 0 0 0 .024-.121v-7.673a.959.959 0 0 0-.959-.959.959.959 0 0 0-.959.959v5.555a28.769 28.769 0 0 0-40.485 4.021 28.765 28.765 0 0 0-6.5 17.235.959.959 0 0 0 .922.987z" data-name="패스 199" transform="translate(2641.169 -607.783)"/>
    <g id="prefix__그룹_199" data-name="그룹 199" transform="translate(26.996 54.85)">
        <path id="prefix__패스_200" d="M-2530 994.831a27.281 27.281 0 0 1-2.316-1.535.958.958 0 0 0-1.346.159.958.958 0 0 0 .159 1.347l.048.035a29.006 29.006 0 0 0 2.478 1.645.96.96 0 0 0 1.315-.336.964.964 0 0 0-.337-1.316z" class="prefix__cls-2" data-name="패스 200" transform="translate(2544.965 -971.747)"/>
        <path id="prefix__패스_201" d="M-2562.414 965.753a.962.962 0 0 0-1.356-.083.963.963 0 0 0-.083 1.357 29.031 29.031 0 0 0 2.09 2.118.959.959 0 0 0 1.353-.088.959.959 0 0 0-.059-1.328 26.778 26.778 0 0 1-1.945-1.976z" class="prefix__cls-2" data-name="패스 201" transform="translate(2570.967 -947.948)"/>
        <path id="prefix__패스_202" d="M-2584.816 934.9a27.174 27.174 0 0 1-1.5-2.334.961.961 0 0 0-1.312-.353.961.961 0 0 0-.353 1.312 29.07 29.07 0 0 0 1.612 2.495.958.958 0 0 0 1.343.191.959.959 0 0 0 .21-1.311z" class="prefix__cls-2" data-name="패스 202" transform="translate(2591.633 -919.257)"/>
        <path id="prefix__패스_203" d="M-2494.509 1015.207a26.737 26.737 0 0 1-2.579-1.025.959.959 0 0 0-1.285.434.959.959 0 0 0 .434 1.285l.05.023a28.342 28.342 0 0 0 2.766 1.1.96.96 0 0 0 1.216-.6.96.96 0 0 0-.6-1.216z" class="prefix__cls-2" data-name="패스 203" transform="translate(2514.509 -989.807)"/>
        <path id="prefix__패스_204" d="M-2602 897.489a26.906 26.906 0 0 1-.993-2.59.959.959 0 0 0-1.178-.673.96.96 0 0 0-.674 1.178.754.754 0 0 0 .029.088 28.807 28.807 0 0 0 1.063 2.781.959.959 0 0 0 .878.571.96.96 0 0 0 .959-.959.946.946 0 0 0-.083-.388z" class="prefix__cls-2" data-name="패스 204" transform="translate(2606.058 -886.656)"/>
        <path id="prefix__패스_205" d="M-2611.714 858.985a.959.959 0 0 0 .739-1.137 27.385 27.385 0 0 1-.434-2.742.958.958 0 0 0-1.055-.853.961.961 0 0 0-.854 1.055 28.923 28.923 0 0 0 .466 2.937.959.959 0 0 0 1.138.739z" class="prefix__cls-2" data-name="패스 205" transform="translate(2613.323 -852.29)"/>
        <path id="prefix__패스_206" d="M-2216.663 840.225a.945.945 0 0 0-.992.9.285.285 0 0 0 0 .029 26.969 26.969 0 0 1-.241 2.766.96.96 0 0 0 .817 1.081.908.908 0 0 0 .135.009.959.959 0 0 0 .948-.827 29.126 29.126 0 0 0 .258-2.963.959.959 0 0 0-.925-.995z" class="prefix__cls-2" data-name="패스 206" transform="translate(2273.115 -840.224)"/>
        <path id="prefix__패스_207" d="M-2242.869 919.757a.959.959 0 0 0-1.28.446 26.858 26.858 0 0 1-1.337 2.434.959.959 0 0 0 .333 1.315.959.959 0 0 0 1.3-.305 28.6 28.6 0 0 0 1.432-2.608.959.959 0 0 0-.446-1.281z" class="prefix__cls-2" data-name="패스 207" transform="translate(2296.961 -908.57)"/>
        <path id="prefix__패스_208" d="M-2268.744 954.97a27 27 0 0 1-1.808 2.11.96.96 0 0 0 .033 1.357.96.96 0 0 0 1.357-.034 29.018 29.018 0 0 0 1.936-2.259.959.959 0 0 0-.153-1.348.959.959 0 0 0-1.348.153l-.017.022z" class="prefix__cls-2" data-name="패스 208" transform="translate(2318.639 -938.62)"/>
        <path id="prefix__패스_209" d="M-2455.422 1027.843a27.051 27.051 0 0 1-2.736-.47.959.959 0 0 0-1.147.724.959.959 0 0 0 .724 1.147 28.522 28.522 0 0 0 2.932.5.912.912 0 0 0 .115.007.959.959 0 0 0 .958-.961.96.96 0 0 0-.846-.947z" class="prefix__cls-2" data-name="패스 209" transform="translate(2480.83 -1001.222)"/>
        <path id="prefix__패스_210" d="M-2299.463 984.686a27.374 27.374 0 0 1-2.206 1.7.963.963 0 0 0-.245 1.338.962.962 0 0 0 1.338.245 29.331 29.331 0 0 0 2.36-1.822.959.959 0 0 0 .105-1.352.959.959 0 0 0-1.353-.106z" class="prefix__cls-2" data-name="패스 210" transform="translate(2345.54 -964.316)"/>
        <path id="prefix__패스_211" d="M-2225.712 880.987a.959.959 0 0 0-1.162.7 26.9 26.9 0 0 1-.8 2.658.959.959 0 0 0 .577 1.228.959.959 0 0 0 1.228-.577 28.92 28.92 0 0 0 .864-2.847.96.96 0 0 0-.7-1.162h-.007z" class="prefix__cls-2" data-name="패스 211" transform="translate(2281.573 -875.271)"/>
        <path id="prefix__패스_212" d="M-2374.025 1023.86a26.818 26.818 0 0 1-2.7.662.96.96 0 0 0-.76 1.123.958.958 0 0 0 .94.778.962.962 0 0 0 .181-.016 28.39 28.39 0 0 0 2.889-.711.959.959 0 0 0 .611-1.211.96.96 0 0 0-1.161-.625z" class="prefix__cls-2" data-name="패스 212" transform="translate(2410.425 -998.19)"/>
        <path id="prefix__패스_213" d="M-2414.732 1031.51c-.767.065-1.553.1-2.335.1h-.439a.993.993 0 0 0-.977.942.959.959 0 0 0 .942.976h.474c.838 0 1.678-.037 2.493-.107a.96.96 0 0 0 .9-1.013.96.96 0 0 0-1.013-.9h-.053z" class="prefix__cls-2" data-name="패스 213" transform="translate(2445.688 -1004.794)"/>
        <path id="prefix__패스_214" d="M-2335.106 1007.965a27.157 27.157 0 0 1-2.5 1.207.96.96 0 0 0-.529 1.25.96.96 0 0 0 1.25.529l.021-.009a28.911 28.911 0 0 0 2.678-1.293.96.96 0 0 0 .381-1.3.96.96 0 0 0-1.3-.381z" class="prefix__cls-2" data-name="패스 214" transform="translate(2376.618 -984.443)"/>
    </g>
    <g id="prefix__그룹_200" data-name="그룹 200" transform="translate(35.474 34.664)">
        <path id="prefix__패스_215" d="M-2532.462 695.647a20.143 20.143 0 0 0-20.138 20.143 20.143 20.143 0 0 0 20.143 20.143 20.143 20.143 0 0 0 20.143-20.143 20.166 20.166 0 0 0-20.148-20.143zm.959 38.318v-2.828a.96.96 0 0 0-.959-.959.959.959 0 0 0-.959.959v2.828a18.217 18.217 0 0 1-17.216-17.216h2.829a.96.96 0 0 0 .959-.959.96.96 0 0 0-.959-.959h-2.829a18.216 18.216 0 0 1 17.216-17.216v2.829a.959.959 0 0 0 .959.959.959.959 0 0 0 .959-.959v-2.829a18.217 18.217 0 0 1 17.216 17.216h-2.829a.959.959 0 0 0-.959.959.96.96 0 0 0 .959.959h2.829a18.216 18.216 0 0 1-17.213 17.216z" class="prefix__cls-1" data-name="패스 215" transform="translate(2552.605 -695.647)"/>
        <path id="prefix__패스_216" d="M-2460.577 760.372v-8.809a.96.96 0 0 0-.959-.959.96.96 0 0 0-.959.959v8.809a2.88 2.88 0 0 0-1.742 1.742h-4.972a.959.959 0 0 0-.959.959.96.96 0 0 0 .959.959h4.972a2.87 2.87 0 0 0 3.66 1.756 2.87 2.87 0 0 0 1.756-3.66 2.868 2.868 0 0 0-1.756-1.756zm-.959 3.66a.96.96 0 0 1-.959-.959.96.96 0 0 1 .959-.959.96.96 0 0 1 .959.959.96.96 0 0 1-.959.959z" class="prefix__cls-1" data-name="패스 216" transform="translate(2481.679 -742.931)"/>
    </g>
</svg>
