<svg xmlns="http://www.w3.org/2000/svg" id="prefix__구성_요소_75_1" width="108.308" height="108.308" data-name="구성 요소 75 – 1" viewBox="0 0 108.308 108.308">
    <defs>
        <style>
            .prefix__cls-3{fill:#0a1e2d}
        </style>
    </defs>
    <g id="prefix__그룹_181" data-name="그룹 181" transform="translate(22.03 36.4)">
        <path id="prefix__패스_181" fill="#0091ff" d="M-1794.275-748.549h14.7a13.751 13.751 0 0 0 13.486-14 13.751 13.751 0 0 0-13.486-14 13.036 13.036 0 0 0-3.177.394 17.724 17.724 0 0 0-15.526-9.408 17.724 17.724 0 0 0-15.526 9.408 13.038 13.038 0 0 0-3.177-.394 13.75 13.75 0 0 0-13.486 14 13.75 13.75 0 0 0 13.486 14h22.71z" data-name="패스 181" transform="translate(1830.471 785.563)"/>
    </g>
    <g id="prefix__surface1" transform="translate(42.689 44.463)">
        <path id="prefix__패스_182" fill="#fff" d="M-1644.293-698.106a8.9 8.9 0 0 0-2.121-12.41 8.9 8.9 0 0 0-12.41 2.122 8.9 8.9 0 0 0 2.122 12.409 8.9 8.9 0 0 0 9.671.4l6.564 6.524a1.863 1.863 0 0 0 2.634.067 1.863 1.863 0 0 0 .068-2.633c-.022-.024-.044-.046-.068-.068zm-7.271.608a5.742 5.742 0 0 1-5.744-5.739 5.741 5.741 0 0 1 5.74-5.743 5.741 5.741 0 0 1 5.742 5.73 5.743 5.743 0 0 1-5.734 5.752z" data-name="패스 182" transform="translate(1660.462 712.153)"/>
    </g>
    <g id="prefix__그룹_182" data-name="그룹 182">
        <path id="prefix__패스_183" d="M-1885.866-901.024v-18.048a16.809 16.809 0 0 1 16.79-16.791h17.013v-4.829h-17.013a21.644 21.644 0 0 0-21.619 21.619v18.048z" class="prefix__cls-3" data-name="패스 183" transform="translate(1890.695 940.691)"/>
        <path id="prefix__패스_184" d="M-1450.517-528.281v15.981a16.81 16.81 0 0 1-16.79 16.79h-17.013v4.829h17.013a21.644 21.644 0 0 0 21.62-21.619v-15.978z" class="prefix__cls-3" data-name="패스 184" transform="translate(1553.996 598.992)"/>
        <path id="prefix__패스_185" d="M-1484.32-935.862h17.013a16.81 16.81 0 0 1 16.79 16.791v18.048h4.829v-18.048a21.644 21.644 0 0 0-21.62-21.619h-17.013z" class="prefix__cls-3" data-name="패스 185" transform="translate(1553.996 940.691)"/>
        <path id="prefix__패스_186" d="M-1852.063-495.513h-17.013a16.809 16.809 0 0 1-16.79-16.79v-15.978h-4.829v15.981a21.644 21.644 0 0 0 21.619 21.619h17.013z" class="prefix__cls-3" data-name="패스 186" transform="translate(1890.695 598.992)"/>
    </g>
</svg>
