<svg xmlns="http://www.w3.org/2000/svg" id="prefix___" width="86" height="86" data-name="+" viewBox="0 0 86 86">
    <path id="prefix___2" fill="#1b91ff" d="M-351.778 301.222h-33.444v-33.444A4.778 4.778 0 0 0-390 263a4.778 4.778 0 0 0-4.778 4.778v33.444h-33.444A4.778 4.778 0 0 0-433 306a4.778 4.778 0 0 0 4.778 4.778h33.444v33.444A4.778 4.778 0 0 0-390 349a4.778 4.778 0 0 0 4.778-4.778v-33.444h33.444A4.778 4.778 0 0 0-347 306a4.778 4.778 0 0 0-4.778-4.778z" data-name="+" transform="translate(433 -263)"/>
</svg>
