<svg xmlns="http://www.w3.org/2000/svg" id="prefix__shield_icon" width="42" height="42" viewBox="0 0 42 42">
    <defs>
        <style>
            .prefix__cls-1{fill:#d53679}
        </style>
    </defs>
    <path id="prefix__패스_169" d="M29.19 5.3l-14-5.25a.971.971 0 0 0-.63 0L.56 5.3a.877.877 0 0 0-.56.825v11.252C0 33.337 14.543 36.7 14.682 36.733a1.068 1.068 0 0 0 .385 0 20.463 20.463 0 0 0 6.458-3.028 5.233 5.233 0 0 1 .945-1.295 5.227 5.227 0 0 1-.4-5.583 12.6 12.6 0 0 1 7.453-6.127 24.817 24.817 0 0 0 .227-3.325V6.125a.877.877 0 0 0-.56-.823z" class="prefix__cls-1" data-name="패스 169"/>
    <path id="prefix__패스_170" d="M30.145 19.977a1.751 1.751 0 0 0-2.371.705 5.645 5.645 0 0 1-7.992 2.14l.833-.833a1.312 1.312 0 0 0-.928-2.24h-4.374A1.313 1.313 0 0 0 14 21.063v4.375a1.314 1.314 0 0 0 .81 1.213 1.292 1.292 0 0 0 .5.1 1.306 1.306 0 0 0 .927-.385l1-1a9.209 9.209 0 0 0 13.608-3.012 1.751 1.751 0 0 0-.705-2.373z" class="prefix__cls-1" data-name="패스 170" transform="translate(10.5 14.813)"/>
    <path id="prefix__패스_171" d="M30.5 14.037a1.31 1.31 0 0 0-1.43.285l-1 1a9.2 9.2 0 0 0-13.611 3.033 1.75 1.75 0 0 0 3.083 1.657 5.635 5.635 0 0 1 7.989-2.151l-.831.839a1.312 1.312 0 0 0 .928 2.24H30a1.313 1.313 0 0 0 1.313-1.312V15.25a1.314 1.314 0 0 0-.813-1.213z" class="prefix__cls-1" data-name="패스 171" transform="translate(10.687 10.125)"/>
</svg>
