
<svg xmlns="http://www.w3.org/2000/svg" id="prefix__center_icon" width="411.725" height="411.725" viewBox="0 0 411.725 411.725">
    <path id="prefix__center_icon-2" fill="#fff" d="M-498.845-2655.336a111.638 111.638 0 0 1 111.508-111.509 111.638 111.638 0 0 1 111.509 111.509 111.637 111.637 0 0 1-111.509 111.508 111.637 111.637 0 0 1-111.508-111.508zm47.914-16.418a17.135 17.135 0 0 0 0 24.257l34.311 34.311a17.137 17.137 0 0 0 12.128 5.026h.566a17.128 17.128 0 0 0 12.335-5.85l60.044-68.621a17.179 17.179 0 0 0-1.613-24.223 17.175 17.175 0 0 0-24.206 1.613l-47.966 54.828-21.341-21.341a17.1 17.1 0 0 0-12.129-5.031 17.1 17.1 0 0 0-12.129 5.031zm-92.69 76.29c-1.372-.344-143.932-33.281-143.932-189.737v-110.309a8.594 8.594 0 0 1 5.489-8.062l137.242-51.467a9.526 9.526 0 0 1 6.176 0l137.242 51.467a8.6 8.6 0 0 1 5.49 8.063v94.524c-76.513 4.461-137.242 68.107-137.242 145.649a143.556 143.556 0 0 0 10.636 54.382c-10.293 3.946-16.984 5.49-17.327 5.49a7.064 7.064 0 0 1-1.887.171 7.068 7.068 0 0 1-1.887-.171z" data-name="center_icon" transform="translate(687.552 2955.553)"/>
</svg>
